<svg xmlns="http://www.w3.org/2000/svg" width="145" height="34" viewBox="0 0 145 34" fill="none"><path fill-rule="evenodd" clip-rule="evenodd" d="M7.07487 2.97618C5.89142 3.80368 4.82127 4.78206 3.89227 5.88342C7.68857 5.53097 12.5116 6.10647 18.1112 8.90626C24.0907 11.896 28.9057 11.997 32.2567 11.3507C31.9526 10.4301 31.5698 9.54528 31.1164 8.70418C27.2804 9.10876 22.3627 8.57323 16.6315 5.7077C12.9921 3.88802 9.784 3.13843 7.07487 2.97618ZM28.8756 5.51469C25.8463 2.13005 21.444 0 16.5441 0C15.1052 0 13.709 0.183728 12.378 0.528982C14.1807 1.02084 16.0957 1.74043 18.1112 2.7482C22.3072 4.84621 25.9299 5.52173 28.8756 5.51469ZM32.9732 14.5821C28.9248 15.3815 23.3345 15.2173 16.6315 11.8658C10.3649 8.73247 5.3772 8.77192 2.01334 9.51947C1.83971 9.55802 1.67016 9.59855 1.50471 9.64074C1.0643 10.5986 0.712749 11.6058 0.460508 12.6517C0.729915 12.5797 1.00831 12.5113 1.29554 12.4474C5.37649 11.5406 11.1425 11.58 18.1112 15.0643C24.3778 18.1976 29.3655 18.1582 32.7294 17.4106C32.8446 17.385 32.9582 17.3586 33.0699 17.3313C33.0821 17.0705 33.0882 16.808 33.0882 16.5441C33.0882 15.8803 33.0492 15.2255 32.9732 14.5821ZM32.5297 20.8227C28.5206 21.5236 23.0931 21.2546 16.6315 18.0238C10.3649 14.8905 5.3772 14.93 2.01334 15.6775C1.26666 15.8434 0.594959 16.0455 0.00242372 16.2588C0.000808181 16.3537 0 16.4488 0 16.5441C0 25.6812 7.40705 33.0882 16.5441 33.0882C24.2016 33.0882 30.6441 27.8859 32.5297 20.8227Z" fill="#02B6AB"></path><path d="M50.902 22.216C49.918 22.216 49 22.042 48.148 21.694C47.296 21.346 46.552 20.86 45.916 20.236C45.28 19.612 44.782 18.88 44.422 18.04C44.074 17.188 43.9 16.27 43.9 15.286C43.9 14.29 44.074 13.372 44.422 12.532C44.77 11.692 45.262 10.96 45.898 10.336C46.534 9.712 47.278 9.232 48.13 8.896C48.982 8.548 49.906 8.374 50.902 8.374C51.898 8.374 52.822 8.548 53.674 8.896C54.526 9.244 55.27 9.73 55.906 10.354C56.542 10.966 57.034 11.692 57.382 12.532C57.742 13.372 57.922 14.29 57.922 15.286C57.922 16.27 57.742 17.188 57.382 18.04C57.022 18.88 56.524 19.612 55.888 20.236C55.252 20.86 54.508 21.346 53.656 21.694C52.816 22.042 51.898 22.216 50.902 22.216ZM50.902 19.984C51.562 19.984 52.168 19.87 52.72 19.642C53.272 19.402 53.752 19.072 54.16 18.652C54.58 18.232 54.898 17.734 55.114 17.158C55.342 16.582 55.456 15.958 55.456 15.286C55.456 14.614 55.342 13.996 55.114 13.432C54.898 12.856 54.58 12.358 54.16 11.938C53.752 11.506 53.272 11.176 52.72 10.948C52.168 10.72 51.562 10.606 50.902 10.606C50.254 10.606 49.654 10.72 49.102 10.948C48.55 11.176 48.064 11.506 47.644 11.938C47.236 12.358 46.918 12.856 46.69 13.432C46.462 13.996 46.348 14.614 46.348 15.286C46.348 15.958 46.462 16.582 46.69 17.158C46.918 17.734 47.236 18.232 47.644 18.652C48.064 19.072 48.55 19.402 49.102 19.642C49.654 19.87 50.254 19.984 50.902 19.984ZM64.2567 22.216C63.2847 22.216 62.4087 21.994 61.6287 21.55C60.8607 21.094 60.2547 20.482 59.8107 19.714C59.3667 18.934 59.1447 18.058 59.1447 17.086C59.1447 16.114 59.3667 15.244 59.8107 14.476C60.2547 13.708 60.8607 13.102 61.6287 12.658C62.4087 12.214 63.2847 11.992 64.2567 11.992C64.9527 11.992 65.6007 12.118 66.2007 12.37C66.8007 12.61 67.3167 12.946 67.7487 13.378C68.1927 13.798 68.5107 14.302 68.7027 14.89L66.6327 15.79C66.4527 15.298 66.1467 14.902 65.7147 14.602C65.2947 14.302 64.8087 14.152 64.2567 14.152C63.7407 14.152 63.2787 14.278 62.8707 14.53C62.4747 14.782 62.1627 15.13 61.9347 15.574C61.7067 16.018 61.5927 16.528 61.5927 17.104C61.5927 17.68 61.7067 18.19 61.9347 18.634C62.1627 19.078 62.4747 19.426 62.8707 19.678C63.2787 19.93 63.7407 20.056 64.2567 20.056C64.8207 20.056 65.3127 19.906 65.7327 19.606C66.1527 19.306 66.4527 18.904 66.6327 18.4L68.7027 19.336C68.5107 19.888 68.1987 20.386 67.7667 20.83C67.3347 21.262 66.8187 21.604 66.2187 21.856C65.6187 22.096 64.9647 22.216 64.2567 22.216ZM74.7759 22.216C73.7679 22.216 72.8859 21.988 72.1299 21.532C71.3739 21.076 70.7859 20.458 70.3659 19.678C69.9459 18.898 69.7359 18.034 69.7359 17.086C69.7359 16.102 69.9459 15.232 70.3659 14.476C70.7979 13.708 71.3799 13.102 72.1119 12.658C72.8559 12.214 73.6839 11.992 74.5959 11.992C75.3639 11.992 76.0359 12.118 76.6119 12.37C77.1999 12.622 77.6979 12.97 78.1059 13.414C78.5139 13.858 78.8259 14.368 79.0419 14.944C79.2579 15.508 79.3659 16.12 79.3659 16.78C79.3659 16.948 79.3539 17.122 79.3299 17.302C79.3179 17.482 79.2879 17.638 79.2399 17.77H71.6799V15.97H77.9079L76.7919 16.816C76.8999 16.264 76.8699 15.772 76.7019 15.34C76.5459 14.908 76.2819 14.566 75.9099 14.314C75.5499 14.062 75.1119 13.936 74.5959 13.936C74.1039 13.936 73.6659 14.062 73.2819 14.314C72.8979 14.554 72.6039 14.914 72.3999 15.394C72.2079 15.862 72.1359 16.432 72.1839 17.104C72.1359 17.704 72.2139 18.238 72.4179 18.706C72.6339 19.162 72.9459 19.516 73.3539 19.768C73.7739 20.02 74.2539 20.146 74.7939 20.146C75.3339 20.146 75.7899 20.032 76.1619 19.804C76.5459 19.576 76.8459 19.27 77.0619 18.886L78.9699 19.822C78.7779 20.29 78.4779 20.704 78.0699 21.064C77.6619 21.424 77.1759 21.706 76.6119 21.91C76.0599 22.114 75.4479 22.216 74.7759 22.216ZM83.7282 22.216C83.0442 22.216 82.4502 22.102 81.9462 21.874C81.4422 21.646 81.0522 21.322 80.7762 20.902C80.5002 20.47 80.3622 19.972 80.3622 19.408C80.3622 18.868 80.4822 18.388 80.7222 17.968C80.9622 17.536 81.3342 17.176 81.8382 16.888C82.3422 16.6 82.9782 16.396 83.7462 16.276L86.9502 15.754V17.554L84.1962 18.022C83.7282 18.106 83.3802 18.256 83.1522 18.472C82.9242 18.688 82.8102 18.97 82.8102 19.318C82.8102 19.654 82.9362 19.924 83.1882 20.128C83.4522 20.32 83.7762 20.416 84.1602 20.416C84.6522 20.416 85.0842 20.314 85.4562 20.11C85.8402 19.894 86.1342 19.6 86.3382 19.228C86.5542 18.856 86.6622 18.448 86.6622 18.004V15.484C86.6622 15.064 86.4942 14.716 86.1582 14.44C85.8342 14.152 85.4022 14.008 84.8622 14.008C84.3582 14.008 83.9082 14.146 83.5122 14.422C83.1282 14.686 82.8462 15.04 82.6662 15.484L80.7402 14.548C80.9322 14.032 81.2322 13.588 81.6402 13.216C82.0602 12.832 82.5522 12.532 83.1162 12.316C83.6802 12.1 84.2922 11.992 84.9522 11.992C85.7562 11.992 86.4642 12.142 87.0762 12.442C87.6882 12.73 88.1622 13.138 88.4982 13.666C88.8462 14.182 89.0202 14.788 89.0202 15.484V22H86.7882V20.326L87.2922 20.29C87.0402 20.71 86.7402 21.064 86.3922 21.352C86.0442 21.628 85.6482 21.844 85.2042 22C84.7602 22.144 84.2682 22.216 83.7282 22.216ZM90.8396 22V12.208H93.0536V14.134L92.8736 13.792C93.1016 13.204 93.4736 12.76 93.9896 12.46C94.5176 12.148 95.1296 11.992 95.8256 11.992C96.5456 11.992 97.1816 12.148 97.7336 12.46C98.2976 12.772 98.7356 13.21 99.0476 13.774C99.3596 14.326 99.5156 14.968 99.5156 15.7V22H97.1576V16.258C97.1576 15.826 97.0736 15.454 96.9056 15.142C96.7376 14.83 96.5036 14.59 96.2036 14.422C95.9156 14.242 95.5736 14.152 95.1776 14.152C94.7936 14.152 94.4516 14.242 94.1516 14.422C93.8516 14.59 93.6176 14.83 93.4496 15.142C93.2816 15.454 93.1976 15.826 93.1976 16.258V22H90.8396ZM104.93 22L100.25 8.59H102.914L106.586 19.696H106.064L109.736 8.59H112.4L107.738 22H104.93ZM113.34 22V12.208H115.698V22H113.34ZM113.34 11.11V8.59H115.698V11.11H113.34ZM122.16 22.216C121.152 22.216 120.27 21.988 119.514 21.532C118.758 21.076 118.17 20.458 117.75 19.678C117.33 18.898 117.12 18.034 117.12 17.086C117.12 16.102 117.33 15.232 117.75 14.476C118.182 13.708 118.764 13.102 119.496 12.658C120.24 12.214 121.068 11.992 121.98 11.992C122.748 11.992 123.42 12.118 123.996 12.37C124.584 12.622 125.082 12.97 125.49 13.414C125.898 13.858 126.21 14.368 126.426 14.944C126.642 15.508 126.75 16.12 126.75 16.78C126.75 16.948 126.738 17.122 126.714 17.302C126.702 17.482 126.672 17.638 126.624 17.77H119.064V15.97H125.292L124.176 16.816C124.284 16.264 124.254 15.772 124.086 15.34C123.93 14.908 123.666 14.566 123.294 14.314C122.934 14.062 122.496 13.936 121.98 13.936C121.488 13.936 121.05 14.062 120.666 14.314C120.282 14.554 119.988 14.914 119.784 15.394C119.592 15.862 119.52 16.432 119.568 17.104C119.52 17.704 119.598 18.238 119.802 18.706C120.018 19.162 120.33 19.516 120.738 19.768C121.158 20.02 121.638 20.146 122.178 20.146C122.718 20.146 123.174 20.032 123.546 19.804C123.93 19.576 124.23 19.27 124.446 18.886L126.354 19.822C126.162 20.29 125.862 20.704 125.454 21.064C125.046 21.424 124.56 21.706 123.996 21.91C123.444 22.114 122.832 22.216 122.16 22.216ZM130.643 22L127.277 12.208H129.761L132.227 19.642L131.363 19.624L133.991 12.208H136.079L138.689 19.624L137.825 19.642L140.291 12.208H142.775L139.409 22H137.303L134.639 14.242H135.431L132.731 22H130.643Z" fill="#242A2E"></path></svg>